<?xml version="1.0" encoding="utf-8" ?><svg xmlns="http://www.w3.org/2000/svg" xmlns:xlink="http://www.w3.org/1999/xlink" width="1021" height="288" viewBox="0 0 1021 288"><clipPath id="cl_3"><rect x="1.5258789e-05" width="1021.4365" height="288.32455"/></clipPath><g clip-path="url(#cl_3)"><path fill="#E7B66D" transform="matrix(0.984043 0 0 0.984043 -252.899 -364.096)" d="M958.494 451.097C993.465 444.477 1027.17 467.511 1033.71 502.504C1040.25 537.498 1017.15 571.157 982.151 577.626C947.259 584.075 913.732 561.055 907.209 526.167C900.686 491.28 923.63 457.696 958.494 451.097ZM974.438 500.832C988.807 501.024 1030.94 506.01 1002.5 481.776C992.534 473.281 981.77 468.147 968.562 468.431C952.938 469.727 943.289 476.111 932.722 487.653C915.322 506.659 965.161 500.606 974.438 500.832ZM959.927 558.439C972.356 546.226 948.468 515.42 928.386 516.145C917.219 528.072 942.651 557.644 959.927 558.439ZM988.034 557.327C1001.94 549.169 1009.12 544.225 1014.83 527.363C1015.69 524.82 1015.9 520.865 1014.51 518.49C1013.65 517.03 1012.23 515.989 1010.57 515.613C1009.19 515.312 1007.34 515.332 1005.91 515.397C994.86 520.196 986.577 527.719 982.013 539.075C979.326 545.759 975.767 559.44 988.034 557.327ZM973.221 527.727C975.929 526.821 977.942 524.53 978.492 521.727C979.042 518.924 978.044 516.041 975.878 514.179C973.712 512.317 970.713 511.763 968.025 512.728C963.932 514.197 961.784 518.687 963.207 522.797C964.631 526.907 969.096 529.105 973.221 527.727Z"/><path fill="#30333D" transform="matrix(0.984043 0 0 0.984043 -252.899 -364.096)" d="M838.695 458.524C853.723 457.657 866.644 459.931 878.378 470.258C911.903 499.764 899.016 570.6 850.005 573.53C833.384 574.524 822.383 568.85 810.359 557.996C810.196 565.537 810.109 573.08 810.099 580.623C810.163 592.252 810.118 603.881 809.965 615.51C801.881 615.96 793.54 615.772 785.437 615.672C784.348 608.888 784.705 596.359 784.718 588.941L784.749 547.434L784.68 493.695C784.663 484.195 784.248 469.772 785.198 460.712C793.021 460.338 802.024 460.571 809.941 460.602L810.012 473.955C819.795 465.019 825.931 461.662 838.695 458.524ZM845.685 551.448C848.678 550.788 852.278 550.021 854.982 548.597C877.029 536.99 876.885 497.21 855.968 484.604C849.904 480.949 843.668 480.424 836.789 481.061C798.504 488.457 802.252 554.535 845.685 551.448Z"/><path fill="#30333D" transform="matrix(0.984043 0 0 0.984043 -252.899 -364.096)" d="M488.027 458.554C504.536 457.577 522.686 457.357 535.263 470.066C540.325 475.155 543.851 481.568 545.436 488.569C546.904 495.135 546.15 512.023 546.127 519.641C546.196 536.812 546.159 553.984 546.015 571.154C538.729 571.591 531.426 571.64 524.134 571.301L524.744 556.279C519.547 562.402 513.326 568.392 505.443 570.635C485.769 576.233 465.238 573.799 453.573 555.856C448.861 545.974 448.198 535.806 453.359 525.849C464.133 505.059 501.887 506.704 522.876 504.664C522.685 502.074 522.414 497.845 521.829 495.424C520.443 489.797 516.859 484.961 511.879 481.999C500.855 475.548 482.805 478.272 475.336 489.009C473.997 490.934 472.585 493.463 471.412 495.5C464.353 493.271 458.291 491.259 451.39 488.603C456.665 470.482 470.56 462.314 488.027 458.554ZM484.748 554.651C504.78 559.071 522.491 551.67 522.72 529.246C522.75 526.349 522.825 523.386 522.849 520.477C521.234 520.551 516.194 520.685 514.854 520.916C504.068 521.87 483.174 522.091 476.632 530.58C469.542 539.781 474.915 550.51 484.748 554.651Z"/><path fill="#30333D" transform="matrix(0.984043 0 0 0.984043 -252.899 -364.096)" d="M617.801 458.513C646.137 456.449 665.95 468.101 665.953 499.309C665.956 522.963 666.893 547.742 665.927 571.31C659.108 571.758 649.409 571.523 642.373 571.564C641.319 553.404 645.567 506.177 639.71 492.662C637.529 487.629 633.635 483.543 628.443 481.626C620.876 478.833 611.53 480.683 604.432 483.945C587.967 494.179 590.876 513.14 590.919 530.148L591.05 571.465C583.242 571.496 575.434 571.408 567.629 571.203C566.736 558.71 567.332 540.752 567.382 527.895L567.428 460.666C575.069 460.429 583.362 460.582 591.055 460.582L591.043 476.212C599.66 466.693 605.157 462.11 617.801 458.513Z"/><path fill="#30333D" transform="matrix(0.984043 0 0 0.984043 -252.899 -364.096)" d="M716.119 458.605C740.658 455.684 757.563 462.959 769.505 484.749C764.135 487.027 755.119 489.8 749.436 491.547C748.053 489.748 746.516 487.769 744.895 486.071C737.892 477.199 713.989 473.952 706.509 483.323C695.812 496.723 720.066 501.883 727.365 503C739.348 504.834 752.575 508.452 761.449 515.524C774.308 525.771 774.694 547.603 763.729 559.29C753.835 570.197 744.033 572.326 729.95 573.147C709.677 573.657 687.467 565.527 680.236 544.95C686.851 542.115 693.998 539.465 700.738 536.92C703.096 540.865 704.474 543.295 708.171 546.705C717.203 555.035 737.006 557.161 745.474 547.059C750.808 538.649 745.039 531.183 736.569 528.371C719.781 522.639 685.4 521.071 681.278 498.884C676.83 474.938 695.833 462.38 716.119 458.605Z"/><path fill="#30333D" transform="matrix(0.984043 0 0 0.984043 -252.899 -364.096)" d="M1141.46 432.175C1149.91 432.088 1158.36 432.094 1166.81 432.193C1166.86 441.793 1166.22 450.827 1166.6 460.599L1194.64 460.598L1194.64 482.829C1185.74 483.291 1176.02 482.686 1166.73 483.073C1166.58 484.581 1166.48 486.093 1166.44 487.607C1166.09 500.699 1166.12 514.104 1166.11 527.169C1166.08 551.174 1175.34 550.598 1194.81 549.592L1194.97 561.324L1194.65 571.334C1165.99 574.744 1141.05 570.311 1141.39 535.676C1141.57 518.354 1141.49 500.379 1141.46 483.022L1124.94 482.834C1124.25 475.335 1124.51 468.131 1124.94 460.637L1141.51 460.543L1141.46 432.175Z"/><path fill="#30333D" transform="matrix(0.984043 0 0 0.984043 -252.899 -364.096)" d="M308.977 432.416C316.071 431.894 326.896 432.186 334.268 432.161C334.659 442.389 333.802 450.429 332.889 460.528C341.648 460.855 352.008 460.61 360.908 460.642C361.508 468.145 361.71 475.379 360.703 482.851C352.355 483.262 342.334 482.987 333.692 483.165C334.188 497.365 333.284 512.233 333.427 526.479C333.667 550.461 341.003 550.522 361.441 549.675L361.447 562.029L361.16 571.075C347.209 573.037 323.414 572.949 315.426 560.233C304.635 543.055 309.273 503.439 308.569 483.005C303.08 482.921 297.979 483.366 292.518 483.766L292.446 460.659L308.698 460.576C308.875 451.167 308.717 441.94 308.977 432.416Z"/><path fill="#30333D" transform="matrix(0.984043 0 0 0.984043 -252.899 -364.096)" d="M433.679 458.602C436.527 458.221 438.902 458.081 441.153 459.797C444.801 464.979 442.9 477.249 442.517 483.904L440.431 483.823C402.323 482.485 403.386 500.489 403.517 530.985C403.663 544.385 403.631 557.786 403.421 571.185C398.427 571.383 384.024 572.427 379.868 570.517L379.51 568.826L379.546 460.649C387.171 460.482 394.798 460.491 402.423 460.676C402.677 465.701 402.562 471.95 402.593 477.079C412.937 465.163 418.042 461.18 433.679 458.602Z"/><path fill="#30333D" transform="matrix(0.984043 0 0 0.984043 -252.899 -364.096)" d="M1108.16 458.593C1110.71 458.454 1112.14 458.11 1114.38 459.265C1118.41 464.115 1116.64 476.662 1116.33 483.101C1104.87 483.507 1094.59 482.959 1085.45 491.318C1081.71 494.734 1079.07 499.188 1077.87 504.111C1075.84 512.335 1077.33 558.523 1076.84 571.294C1072.75 571.415 1056.47 572.488 1053.34 570.367L1053.09 567.326L1053.01 460.606C1060.62 460.54 1068.24 460.55 1075.85 460.635C1075.81 466.541 1075.94 472.446 1076.23 478.345C1087.75 465.634 1089.08 461.608 1108.16 458.593Z"/><path fill="#30333D" transform="matrix(0.984043 0 0 0.984043 -252.899 -364.096)" d="M1215.04 460.65C1222.89 460.464 1231.23 460.613 1239.13 460.623L1239.18 571.163C1231.57 571.582 1222.81 571.443 1215.1 571.486C1214.39 535.28 1215.03 497.02 1215.04 460.65Z"/><path fill="#30333D" transform="matrix(0.984043 0 0 0.984043 -252.899 -364.096)" d="M1223.52 414.385C1231.12 413.059 1238.39 418.067 1239.87 425.649C1241.34 433.231 1236.48 440.6 1228.93 442.223C1223.91 443.302 1218.7 441.585 1215.31 437.734C1211.92 433.882 1210.87 428.498 1212.57 423.655C1214.27 418.812 1218.46 415.267 1223.52 414.385Z"/></g></svg>